<svg width="115" height="22" viewBox="0 0 115 22" fill="none" xmlns="http://www.w3.org/2000/svg">
    <path d="M0 0H33.009V22H0V0Z" fill="#164194"/>
    <path d="M15.8019 4.79381L16.4991 4.28612L17.1947 4.79381L16.9305 3.97344L17.6375 3.46494H16.7658L16.4991 2.63306L16.2324 3.46576L15.3607 3.46494L16.0678 3.97344L15.8019 4.79381Z" fill="#FFED00"/>
    <path d="M12.1974 5.76228L12.8946 5.25459L13.5901 5.76228L13.3259 4.94109L14.033 4.43258H13.1604L12.8937 3.59988L12.6271 4.43341L11.7553 4.43258L12.4624 4.94109L12.1974 5.76228Z" fill="#FFED00"/>
    <path d="M10.2564 6.24281L9.98969 7.07551L9.11798 7.07469L9.82506 7.5832L9.56001 8.40521L10.2564 7.89752L10.9528 8.40521L10.6877 7.5832L11.3956 7.07469H10.5231L10.2564 6.24281Z" fill="#FFED00"/>
    <path d="M9.2892 11.4958L9.98475 12.0043L9.72052 11.1823L10.4276 10.6746H9.55589L9.2892 9.84187L9.0225 10.6762L8.14996 10.6746L8.85787 11.1823L8.59281 12.0043L9.2892 11.4958Z" fill="#FFED00"/>
    <path d="M10.5231 14.2835L10.2564 13.4508L9.98969 14.2843L9.11798 14.2835L9.82506 14.792L9.56001 15.6132L10.2564 15.1047L10.9536 15.6132L10.6877 14.792L11.3956 14.2835H10.5231Z" fill="#FFED00"/>
    <path d="M13.1662 16.9248L12.8995 16.0937L12.6328 16.9256L11.7603 16.9248L12.4674 17.4333L12.2031 18.2553L12.8995 17.746L13.5959 18.2553L13.3308 17.4333L14.0387 16.9248H13.1662Z" fill="#FFED00"/>
    <path d="M16.7658 17.8826L16.4991 17.0499L16.2333 17.8834L15.3607 17.8826L16.0678 18.3902L15.8027 19.2123L16.4991 18.7046L17.1963 19.2123L16.9305 18.3902L17.6384 17.8826H16.7658Z" fill="#FFED00"/>
    <path d="M20.3663 16.9248L20.0996 16.0937L19.8329 16.9256L18.962 16.9248L19.6682 17.4333L19.4032 18.2553L20.0996 17.746L20.7968 18.2553L20.5309 17.4333L21.2388 16.9248H20.3663Z" fill="#FFED00"/>
    <path d="M23.0102 14.2835L22.7427 13.4508L22.4752 14.2843L21.6043 14.2835L22.3114 14.792L22.0463 15.6132L22.7427 15.1047L23.4399 15.6132L23.174 14.792L23.8811 14.2835H23.0102Z" fill="#FFED00"/>
    <path d="M24.8384 10.6639H23.9659L23.6984 9.83117L23.4325 10.6647L22.5608 10.6639L23.2679 11.1716L23.0036 11.9936L23.6984 11.4851L24.3956 11.9936L24.1305 11.1716L24.8384 10.6639Z" fill="#FFED00"/>
    <path d="M22.0463 8.39451L22.7427 7.886L23.4399 8.39451L23.174 7.5725L23.8811 7.06482H23.0102L22.7427 6.23294L22.4752 7.06564L21.6043 7.06482L22.3114 7.5725L22.0463 8.39451Z" fill="#FFED00"/>
    <path d="M20.1103 3.6007L19.8436 4.43423L18.971 4.43258L19.6781 4.94192L19.4131 5.7631L20.1111 5.25459L20.8066 5.7631L20.5416 4.94192L21.2495 4.43258H20.377L20.1103 3.6007Z" fill="#FFED00"/>
    <path fill-rule="evenodd" clip-rule="evenodd" d="M48.7862 8.36324C48.0198 7.57991 46.9794 7.18742 45.664 7.18742C44.3 7.18742 43.2061 7.62763 42.3796 8.50888C41.5532 9.38931 41.14 10.668 41.14 12.3441C41.14 13.4664 41.3474 14.3979 41.7639 15.1401C42.1796 15.8814 42.7558 16.4368 43.4917 16.8047C44.2284 17.1725 45.0787 17.3559 46.0443 17.3559C46.7678 17.3559 47.3893 17.3016 47.9079 17.193C48.4265 17.0844 48.9269 16.9157 49.4101 16.687V14.8595C48.8792 15.1006 48.3606 15.2841 47.8536 15.4108C47.3465 15.5375 46.7802 15.6009 46.1529 15.6009C45.3199 15.6009 44.668 15.3573 44.198 14.8685C43.7271 14.379 43.4794 13.6894 43.4555 12.7966H49.9353V11.6381C49.9353 10.2393 49.5517 9.1474 48.7862 8.36324ZM44.1708 9.45761C44.5511 9.06594 45.0491 8.86928 45.664 8.86928C46.3637 8.86928 46.8798 9.0898 47.2123 9.53001C47.5441 9.97023 47.7153 10.5281 47.7276 11.2036H43.5106C43.5707 10.4318 43.7913 9.8501 44.1708 9.45761Z" fill="#6C3088"/>
    <path d="M60.2156 7.36762V17.1741H58.4236L58.1157 15.9069H58.0071C57.6934 16.4138 57.2588 16.7816 56.704 17.0112C56.1492 17.2408 55.564 17.3551 54.9482 17.3551C53.8502 17.3551 52.9908 17.0721 52.3693 16.5051C51.747 15.9382 51.4367 15.0282 51.4367 13.7733V7.36844H53.7176V13.3208C53.7176 14.0572 53.8617 14.6052 54.1514 14.9673C54.4404 15.3293 54.8997 15.5095 55.5269 15.5095C56.4431 15.5095 57.0744 15.2207 57.4177 14.6414C57.7618 14.0622 57.9338 13.236 57.9338 12.1631V7.36844L60.2156 7.36762Z" fill="#6C3088"/>
    <path d="M67.5457 7.18742C67.7021 7.18742 67.8774 7.19647 68.07 7.21457C68.2626 7.23267 68.4198 7.25407 68.5408 7.27793L68.3417 9.39507C68.2206 9.37121 68.0725 9.34981 67.898 9.33171C67.7226 9.31361 67.5753 9.30456 67.4543 9.30456C66.9711 9.30456 66.5192 9.4033 66.0969 9.60242C65.6747 9.80155 65.3339 10.1068 65.0746 10.5166C64.8145 10.9272 64.6852 11.4513 64.6852 12.0907V17.1741H62.4051V7.36762H64.1609L64.4869 9.06841H64.5955C64.8853 8.55002 65.2837 8.10734 65.7899 7.73871C66.297 7.37091 66.8814 7.18742 67.5457 7.18742Z" fill="#6C3088"/>
    <path fill-rule="evenodd" clip-rule="evenodd" d="M76.7575 16.0254C77.602 15.1384 78.0243 13.8811 78.0243 12.2528C78.0243 11.1674 77.8259 10.2475 77.4259 9.49299C77.0275 8.73928 76.4784 8.16659 75.7788 7.7741C75.0791 7.38325 74.2765 7.1866 73.3719 7.1866C71.924 7.1866 70.7806 7.62352 69.9418 8.49819C69.1039 9.37368 68.6849 10.6244 68.6849 12.2528C68.6849 13.3381 68.8841 14.2613 69.2825 15.0208C69.6801 15.7811 70.2291 16.3595 70.9296 16.7578C71.6285 17.156 72.4253 17.3551 73.3184 17.3551C74.7663 17.3551 75.9129 16.9116 76.7575 16.0254ZM71.5717 14.6595C71.2037 14.0926 71.0202 13.2903 71.0202 12.2528C71.0202 11.216 71.2013 10.4195 71.5634 9.86491C71.9248 9.3095 72.5158 9.0322 73.3365 9.0322C74.1572 9.0322 74.7539 9.3095 75.1285 9.86491C75.5022 10.4203 75.689 11.216 75.689 12.2528C75.689 13.2903 75.5022 14.0926 75.1285 14.6595C74.7539 15.2265 74.1621 15.5095 73.3538 15.5095C72.5339 15.5095 71.9396 15.2265 71.5717 14.6595Z" fill="#6C3088"/>
    <path fill-rule="evenodd" clip-rule="evenodd" d="M87.5802 8.4628C86.8797 7.61282 85.957 7.18742 84.8111 7.18742C84.0629 7.18742 83.4661 7.33224 83.0191 7.62105C82.573 7.91069 82.2108 8.26039 81.9334 8.67016H81.8248L81.4988 7.36762H79.6525V21.5154H81.9326V17.5353C81.9326 17.2942 81.917 17.0416 81.8873 16.7759C81.8569 16.5109 81.8239 16.2632 81.7877 16.0337H81.9326C82.1977 16.3842 82.5541 16.6919 83.0002 16.9569C83.4464 17.2226 84.0316 17.3551 84.756 17.3551C85.9026 17.3551 86.8344 16.9248 87.553 16.0616C88.2708 15.1993 88.6297 13.9297 88.6297 12.2528C88.6297 10.5775 88.2799 9.31361 87.5802 8.4628ZM82.4495 9.75629C82.7813 9.27411 83.3517 9.0322 84.16 9.0322C84.8959 9.0322 85.4359 9.31032 85.7783 9.86491C86.1224 10.4195 86.2944 11.2036 86.2944 12.2166C86.2944 13.2295 86.1224 14.0284 85.7783 14.6135C85.4351 15.1985 84.9066 15.4914 84.1954 15.4914C83.327 15.4914 82.7319 15.2108 82.4125 14.6505C82.0931 14.0893 81.9334 13.2838 81.9334 12.2347V11.945C81.9458 10.9683 82.117 10.2393 82.4495 9.75629Z" fill="#6C3088"/>
    <path fill-rule="evenodd" clip-rule="evenodd" d="M97.0554 8.02012C96.3977 7.46471 95.4355 7.18742 94.1687 7.18742C93.4929 7.18742 92.8442 7.26559 92.2227 7.42357C91.6013 7.57991 91.0489 7.78479 90.5666 8.03822L91.2909 9.6304C91.7371 9.42552 92.1873 9.25354 92.6393 9.11531C93.0912 8.97707 93.5653 8.90713 94.06 8.90713C94.6025 8.90713 95.0256 9.03961 95.3268 9.30538C95.6281 9.57033 95.7796 10.0171 95.7796 10.6441V11.1321L94.0781 11.1864C92.5693 11.2464 91.444 11.5295 90.7024 12.0364C89.9607 12.5432 89.5895 13.3035 89.5895 14.3164C89.5895 15.3532 89.8792 16.1192 90.4587 16.6138C91.0374 17.1083 91.7675 17.3551 92.6483 17.3551C93.4566 17.3551 94.0962 17.2317 94.5671 16.9849C95.0371 16.7372 95.484 16.3488 95.9063 15.8173H95.9788L96.4315 17.1741H98.0424V10.589C98.0424 9.43128 97.7131 8.57471 97.0554 8.02012ZM94.5852 12.5786L95.7796 12.5424V13.3751C95.7796 14.123 95.5499 14.6875 95.0914 15.0668C94.6329 15.447 94.0715 15.6362 93.4081 15.6362C92.9611 15.6362 92.603 15.5367 92.3314 15.3375C92.0598 15.1384 91.9239 14.8035 91.9239 14.3337C91.9239 13.8153 92.1174 13.4023 92.5034 13.0945C92.8895 12.7868 93.5834 12.6148 94.5852 12.5786Z" fill="#6C3088"/>
    <path d="M106.856 14.3337C106.856 15.3227 106.503 16.074 105.797 16.5858C105.091 17.0984 104.081 17.3551 102.765 17.3551C102.077 17.3551 101.489 17.3066 101.001 17.2103C100.512 17.114 100.039 16.9635 99.58 16.7578V14.8216C100.063 15.0512 100.597 15.2437 101.182 15.4009C101.767 15.5581 102.319 15.6362 102.838 15.6362C103.465 15.6362 103.918 15.5391 104.195 15.3466C104.473 15.1532 104.612 14.894 104.612 14.5682C104.612 14.3757 104.558 14.2037 104.449 14.0531C104.34 13.9025 104.13 13.7363 103.815 13.5553C103.501 13.3743 103.025 13.1513 102.385 12.8863C101.758 12.6329 101.236 12.3795 100.82 12.1269C100.403 11.8734 100.09 11.5723 99.8788 11.2226C99.6673 10.8729 99.5619 10.4203 99.5619 9.86573C99.5619 8.9853 99.9117 8.31881 100.611 7.86625C101.311 7.4137 102.235 7.18742 103.38 7.18742C103.984 7.18742 104.553 7.24831 105.091 7.36844C105.628 7.4894 106.168 7.67042 106.711 7.91151L105.987 9.5942C105.528 9.40083 105.082 9.23873 104.647 9.10543C104.213 8.97296 103.767 8.90631 103.308 8.90631C102.306 8.90631 101.806 9.18936 101.806 9.75629C101.806 9.962 101.869 10.1364 101.996 10.2813C102.123 10.4261 102.346 10.5799 102.665 10.7429C102.985 10.9058 103.441 11.1016 104.032 11.3312C104.611 11.5599 105.112 11.7986 105.534 12.0454C105.956 12.2931 106.282 12.5942 106.512 12.9497C106.741 13.306 106.856 13.7668 106.856 14.3337Z" fill="#6C3088"/>
    <path d="M115 14.3337C115 15.3227 114.647 16.074 113.941 16.5858C113.235 17.0984 112.225 17.3551 110.909 17.3551C110.221 17.3551 109.633 17.3066 109.145 17.2103C108.656 17.114 108.183 16.9635 107.724 16.7578V14.8216C108.207 15.0512 108.741 15.2437 109.326 15.4009C109.911 15.5581 110.463 15.6362 110.982 15.6362C111.609 15.6362 112.062 15.5391 112.34 15.3466C112.617 15.1532 112.756 14.894 112.756 14.5682C112.756 14.3757 112.702 14.2037 112.593 14.0531C112.484 13.9025 112.274 13.7363 111.959 13.5553C111.646 13.3743 111.169 13.1513 110.529 12.8863C109.902 12.6329 109.38 12.3795 108.964 12.1269C108.547 11.8734 108.234 11.5723 108.023 11.2226C107.811 10.8729 107.706 10.4203 107.706 9.86573C107.706 8.9853 108.056 8.31881 108.756 7.86625C109.455 7.4137 110.379 7.18742 111.525 7.18742C112.128 7.18742 112.698 7.24831 113.235 7.36844C113.772 7.4894 114.312 7.67042 114.855 7.91151L114.131 9.5942C113.672 9.40083 113.226 9.23873 112.792 9.10543C112.358 8.97296 111.911 8.90631 111.452 8.90631C110.45 8.90631 109.95 9.18936 109.95 9.75629C109.95 9.962 110.013 10.1364 110.14 10.2813C110.267 10.4261 110.49 10.5799 110.809 10.7429C111.129 10.9058 111.585 11.1016 112.176 11.3312C112.755 11.5599 113.256 11.7986 113.678 12.0454C114.1 12.2931 114.426 12.5942 114.656 12.9497C114.886 13.306 115 13.7668 115 14.3337Z" fill="#6C3088"/>
</svg>
